<svg
   width="135.71887"
   height="135.71904"
   viewBox="0 0 35.908952 35.908996"
   version="1.1"
   id="svg5"
   xml:space="preserve"
   xmlns:xlink="http://www.w3.org/1999/xlink"
   xmlns="http://www.w3.org/2000/svg"
   xmlns:svg="http://www.w3.org/2000/svg"><defs
     id="defs2"><linearGradient
       id="linearGradient1033"><stop
         style="stop-color:#333333;stop-opacity:1"
         offset="0"
         id="stop1029" /><stop
         style="stop-color:#111111;stop-opacity:1"
         offset="1"
         id="stop1031" /></linearGradient><linearGradient
       id="linearGradient83833"><stop
         style="stop-color:#ff9e00;stop-opacity:1"
         offset="0"
         id="stop83829" /><stop
         style="stop-color:#ffff00;stop-opacity:1"
         offset="1"
         id="stop83831" /></linearGradient><linearGradient
       id="linearGradient61237"><stop
         style="stop-color:#262626;stop-opacity:1"
         offset="0"
         id="stop61233" /><stop
         style="stop-color:#1a1a1a;stop-opacity:1"
         offset="1"
         id="stop61235" /></linearGradient><radialGradient
       xlink:href="#linearGradient61237"
       id="radialGradient61241"
       cx="124.29173"
       cy="27.390202"
       fx="124.29173"
       fy="27.390202"
       r="37.311787"
       gradientTransform="matrix(0.72421896,0.15549726,-0.14285689,0.66583658,-56.537999,-12.413838)"
       gradientUnits="userSpaceOnUse" /><linearGradient
       xlink:href="#linearGradient83833"
       id="linearGradient83835"
       x1="185.22728"
       y1="50.799999"
       x2="165.76056"
       y2="29.372921"
       gradientUnits="userSpaceOnUse"
       gradientTransform="matrix(0.9232021,0,0,0.9232021,-82.987406,3.9372453)" /><linearGradient
       xlink:href="#linearGradient83833"
       id="linearGradient89363"
       x1="16.276714"
       y1="33.862667"
       x2="16.837984"
       y2="64.545593"
       gradientUnits="userSpaceOnUse" /><clipPath
       clipPathUnits="userSpaceOnUse"
       id="clipPath1169"><path
         id="path1171"
         style="font-size:21.6809px;line-height:1.25;font-family:Corbel;-inkscape-font-specification:Corbel;letter-spacing:0px;word-spacing:0px;fill:#000000;fill-opacity:1;stroke-width:5.55405"
         d="M 79.182799,253.283 12.144262,214.57828 3.3793769,229.75951 c -1.7549801,3.03971 -3.2686731,5.92958 -4.5389111,8.66992 -1.23696,2.75984 -2.1852799,5.44206 -2.8427139,8.04647 -1.1540411,4.54443 -1.5656041,8.84808 -1.2392761,12.91122 0.307122,4.09642 1.2691359,7.90391 2.889675,11.42244 1.63452801,3.57151 3.893484,6.83493 6.774644,9.79001 2.8812199,2.95489 6.2744292,5.56199 10.1825162,7.81833 3.874667,2.23703 7.762602,3.83389 11.662117,4.79367 3.91363,1.01248 7.767254,1.32231 11.557956,0.92776 3.80483,-0.34184 7.539,-1.41253 11.206789,-3.21413 3.64852,-1.76821 7.152235,-4.28985 10.510809,-7.56145 1.926772,-1.87153 3.761419,-4.04209 5.49943,-6.51248 1.771436,-2.4511 3.53272,-5.19502 5.287595,-8.23455 z m -30.197968,10.43405 -14.412285,27.0894 -15.190911,-27.08794 z m -6.22088,-9.0314 -29.991092,-1.4523 14.801521,-25.63699 z" /></clipPath><clipPath
       clipPathUnits="userSpaceOnUse"
       id="clipPath3247"><rect
         style="fill:#800000;fill-opacity:0.6;stroke:#ff6600;stroke-width:0.119351"
         id="rect3249"
         width="338.75897"
         height="338.75897"
         x="137.89926"
         y="2.3384001"
         transform="rotate(90)" /></clipPath><radialGradient
       xlink:href="#linearGradient1033"
       id="radialGradient1012"
       gradientUnits="userSpaceOnUse"
       gradientTransform="matrix(1.0986855,0,0,1.0986855,-114.49116,-5.9654531)"
       cx="120.5492"
       cy="21.771427"
       fx="120.5492"
       fy="21.771427"
       r="16.341801" /><clipPath
       clipPathUnits="userSpaceOnUse"
       id="clipPath3543"><path
         id="path3545"
         style="fill-opacity:0.787975;stroke-width:0.264583"
         d="M 137.80457,8.8698388 H 257.4465 V 83.468337 H 228.81243 L 215.6984,94.301662 h -77.89383 z" /></clipPath></defs><rect
     style="fill:none;stroke:none;stroke-width:0.0987777;stroke-opacity:1"
     id="rect1326"
     width="135.46666"
     height="135.46666"
     x="0.6179893"
     y="1.6259253" /><g
     aria-label="D"
     id="text25291"
     style="font-size:22.5778px;line-height:1.25;font-family:Algerian;-inkscape-font-specification:Algerian;letter-spacing:0px;word-spacing:0px;stroke-width:0"
     transform="translate(-107.83204,-7.2439134)" /><g
     aria-label="D"
     id="g37718"
     style="font-size:22.5778px;line-height:1.25;font-family:Algerian;-inkscape-font-specification:Algerian;letter-spacing:0px;word-spacing:0px;fill:#ffffff;stroke-width:0"
     transform="translate(-57.972914,-7.2439134)" /><g
     aria-label="N"
     id="text39080"
     style="font-size:22.5778px;line-height:1.25;font-family:Corbel;-inkscape-font-specification:Corbel;letter-spacing:0px;word-spacing:0px;stroke-width:0.264583"
     transform="translate(-79.613754,-7.2439134)" /><g
     aria-label="N"
     id="g44939"
     style="font-size:22.5778px;line-height:1.25;font-family:Corbel;-inkscape-font-specification:Corbel;letter-spacing:0px;word-spacing:0px;stroke-width:0.264583"
     transform="translate(-38.267158,-7.2439134)" /><rect
     style="fill:url(#radialGradient1012);fill-opacity:1;stroke:#ffffff;stroke-width:0.0290694"
     id="rect968"
     width="35.879883"
     height="35.879929"
     x="0.0145347"
     y="0.0145347"
     ry="17.939941" /><path
     id="path970"
     style="font-size:21.6809px;line-height:1.25;font-family:Corbel;-inkscape-font-specification:Corbel;letter-spacing:0px;word-spacing:0px;fill:#ffffff;fill-opacity:1;stroke-width:0.94473"
     d="m 12.620544,11.370935 v 13.167141 h 2.981765 c 0.597036,0 1.151477,-0.02281 1.663188,-0.06874 0.511747,-0.05251 0.987515,-0.14093 1.427081,-0.265587 0.76759,-0.216499 1.436551,-0.521891 2.007338,-0.915527 0.57732,-0.393638 1.05637,-0.859169 1.43686,-1.397138 0.3871,-0.54453 0.67571,-1.154845 0.86598,-1.830588 0.19024,-0.675741 0.2857,-1.397317 0.2857,-2.16491 0,-0.761029 -0.0954,-1.46957 -0.2857,-2.125631 -0.1837,-0.662621 -0.46581,-1.256643 -0.84633,-1.781491 -0.37395,-0.531411 -0.84926,-0.990423 -1.42659,-1.3775 -0.570767,-0.387075 -1.240217,-0.688741 -2.007795,-0.905241 -0.439567,-0.12466 -0.915346,-0.210313 -1.427069,-0.256237 -0.511723,-0.05248 -1.065723,-0.07856 -1.662723,-0.07856 z m 4.105323,3.561021 5.216249,-0.180862 -2.698319,4.541544 z m -0.801329,1.684496 2.336767,4.541466 h -5.035394 z" /></svg>
